<svg xmlns="http://www.w3.org/2000/svg" width="1920" height="1080"><path d="M467,-488L1199,-440L1792,-465Z" fill="#a4cec2" stroke="#a4cec2" stroke-width="1.51"/><path d="M1480,1523L603,1683L2026,1702Z" fill="#215995" stroke="#215995" stroke-width="1.51"/><path d="M467,-488L1792,-465L2210,-470Z" fill="#9ebbbe" stroke="#9ebbbe" stroke-width="1.51"/><path d="M2414,1116L2453,1430L2474,707Z" fill="#1c4489" stroke="#1c4489" stroke-width="1.51"/><path d="M1891,-107L2265,422L2521,-164Z" fill="#7383a2" stroke="#7383a2" stroke-width="1.51"/><path d="M2210,-470L1891,-107L2521,-164Z" fill="#8e8ca3" stroke="#8e8ca3" stroke-width="1.51"/><path d="M2265,422L2474,707L2521,-164Z" fill="#4b7295" stroke="#4b7295" stroke-width="1.51"/><path d="M2414,1116L2065,1193L2453,1430Z" fill="#203d8f" stroke="#203d8f" stroke-width="1.51"/><path d="M2265,422L1861,685L2474,707Z" fill="#396fa9" stroke="#396fa9" stroke-width="1.51"/><path d="M2065,1193L2414,1116L2474,707Z" fill="#234f97" stroke="#234f97" stroke-width="1.51"/><path d="M1861,685L2065,1193L2474,707Z" fill="#2b62aa" stroke="#2b62aa" stroke-width="1.51"/><path d="M2065,1193L2026,1702L2453,1430Z" fill="#243392" stroke="#243392" stroke-width="1.51"/><path d="M1199,-440L1483,-398L1792,-465Z" fill="#9dbbbb" stroke="#9dbbbb" stroke-width="1.51"/><path d="M1873,406L1861,685L2265,422Z" fill="#417eb0" stroke="#417eb0" stroke-width="1.51"/><path d="M1891,-107L1873,406L2265,422Z" fill="#5d86ad" stroke="#5d86ad" stroke-width="1.51"/><path d="M1792,-465L1891,-107L2210,-470Z" fill="#979bab" stroke="#979bab" stroke-width="1.51"/><path d="M-345,-426L-150,-414L467,-488Z" fill="#e5f5b7" stroke="#e5f5b7" stroke-width="1.51"/><path d="M1566,292L1873,406L1891,-107Z" fill="#6294b2" stroke="#6294b2" stroke-width="1.51"/><path d="M1589,1167L1480,1523L2026,1702Z" fill="#264c9d" stroke="#264c9d" stroke-width="1.51"/><path d="M1861,685L1591,903L2065,1193Z" fill="#256caf" stroke="#256caf" stroke-width="1.51"/><path d="M1591,903L1589,1167L2065,1193Z" fill="#2363ab" stroke="#2363ab" stroke-width="1.51"/><path d="M1589,1167L2026,1702L2065,1193Z" fill="#26489e" stroke="#26489e" stroke-width="1.51"/><path d="M1483,-398L1559,-77L1792,-465Z" fill="#97b0b3" stroke="#97b0b3" stroke-width="1.51"/><path d="M1566,292L1861,685L1873,406Z" fill="#428bb5" stroke="#428bb5" stroke-width="1.51"/><path d="M1792,-465L1559,-77L1891,-107Z" fill="#8fa5b0" stroke="#8fa5b0" stroke-width="1.51"/><path d="M1559,-77L1566,292L1891,-107Z" fill="#78a2b3" stroke="#78a2b3" stroke-width="1.51"/><path d="M1566,292L1591,903L1861,685Z" fill="#3289b8" stroke="#3289b8" stroke-width="1.51"/><path d="M1041,1372L603,1683L1480,1523Z" fill="#376ca3" stroke="#376ca3" stroke-width="1.51"/><path d="M1483,-398L1200,-169L1559,-77Z" fill="#92bcba" stroke="#92bcba" stroke-width="1.51"/><path d="M1014,491L1297,887L1566,292Z" fill="#35a5c3" stroke="#35a5c3" stroke-width="1.51"/><path d="M1559,-77L1200,-169L1566,292Z" fill="#7cb3ba" stroke="#7cb3ba" stroke-width="1.51"/><path d="M1320,1184L1480,1523L1589,1167Z" fill="#2866ac" stroke="#2866ac" stroke-width="1.51"/><path d="M1320,1184L1589,1167L1591,903Z" fill="#2373b2" stroke="#2373b2" stroke-width="1.51"/><path d="M1297,887L1320,1184L1591,903Z" fill="#2281b9" stroke="#2281b9" stroke-width="1.51"/><path d="M1566,292L1297,887L1591,903Z" fill="#2b92be" stroke="#2b92be" stroke-width="1.51"/><path d="M908,383L1014,491L1200,-169Z" fill="#63bdbf" stroke="#63bdbf" stroke-width="1.51"/><path d="M1200,-169L1014,491L1566,292Z" fill="#63b4be" stroke="#63b4be" stroke-width="1.51"/><path d="M880,-6L908,383L1200,-169Z" fill="#7ec8be" stroke="#7ec8be" stroke-width="1.51"/><path d="M1320,1184L1041,1372L1480,1523Z" fill="#2f6bad" stroke="#2f6bad" stroke-width="1.51"/><path d="M1199,-440L1200,-169L1483,-398Z" fill="#9dc6bb" stroke="#9dc6bb" stroke-width="1.51"/><path d="M467,-488L694,-334L1199,-440Z" fill="#b0dcbd" stroke="#b0dcbd" stroke-width="1.51"/><path d="M1014,491L779,885L1297,887Z" fill="#34a5c2" stroke="#34a5c2" stroke-width="1.51"/><path d="M779,885L803,1179L1297,887Z" fill="#3696bd" stroke="#3696bd" stroke-width="1.51"/><path d="M1297,887L803,1179L1320,1184Z" fill="#2f86b8" stroke="#2f86b8" stroke-width="1.51"/><path d="M803,1179L1041,1372L1320,1184Z" fill="#377db2" stroke="#377db2" stroke-width="1.51"/><path d="M1199,-440L694,-334L1200,-169Z" fill="#a0d2bb" stroke="#a0d2bb" stroke-width="1.51"/><path d="M694,-334L880,-6L1200,-169Z" fill="#9ad3bc" stroke="#9ad3bc" stroke-width="1.51"/><path d="M503,594L779,885L908,383Z" fill="#54b7c1" stroke="#54b7c1" stroke-width="1.51"/><path d="M908,383L779,885L1014,491Z" fill="#45b4c3" stroke="#45b4c3" stroke-width="1.51"/><path d="M803,1179L603,1683L1041,1372Z" fill="#4b79ac" stroke="#4b79ac" stroke-width="1.51"/><path d="M380,1464L603,1683L803,1179Z" fill="#5b7da9" stroke="#5b7da9" stroke-width="1.51"/><path d="M880,-6L520,215L908,383Z" fill="#78c9bd" stroke="#78c9bd" stroke-width="1.51"/><path d="M520,215L503,594L908,383Z" fill="#6cc4bf" stroke="#6cc4bf" stroke-width="1.51"/><path d="M694,-334L480,-201L880,-6Z" fill="#a7dab9" stroke="#a7dab9" stroke-width="1.51"/><path d="M480,-201L520,215L880,-6Z" fill="#9ad6ba" stroke="#9ad6ba" stroke-width="1.51"/><path d="M779,885L280,1295L803,1179Z" fill="#5693b4" stroke="#5693b4" stroke-width="1.51"/><path d="M280,1295L380,1464L803,1179Z" fill="#6589ac" stroke="#6589ac" stroke-width="1.51"/><path d="M503,594L280,1295L779,885Z" fill="#60a8ba" stroke="#60a8ba" stroke-width="1.51"/><path d="M-32,896L280,1295L503,594Z" fill="#7db1b9" stroke="#7db1b9" stroke-width="1.51"/><path d="M467,-488L480,-201L694,-334Z" fill="#bae2b6" stroke="#bae2b6" stroke-width="1.51"/><path d="M380,1464L-189,1678L603,1683Z" fill="#707f95" stroke="#707f95" stroke-width="1.51"/><path d="M480,-201L10,-184L520,215Z" fill="#b8e3b6" stroke="#b8e3b6" stroke-width="1.51"/><path d="M10,-184L81,410L520,215Z" fill="#acdeb7" stroke="#acdeb7" stroke-width="1.51"/><path d="M81,410L503,594L520,215Z" fill="#85cdbc" stroke="#85cdbc" stroke-width="1.51"/><path d="M467,-488L10,-184L480,-201Z" fill="#c9e9b5" stroke="#c9e9b5" stroke-width="1.51"/><path d="M81,410L-32,896L503,594Z" fill="#8bc8bc" stroke="#8bc8bc" stroke-width="1.51"/><path d="M-32,896L-62,1003L280,1295Z" fill="#8aa9b3" stroke="#8aa9b3" stroke-width="1.51"/><path d="M-150,-414L10,-184L467,-488Z" fill="#ddf1b3" stroke="#ddf1b3" stroke-width="1.51"/><path d="M280,1295L-189,1678L380,1464Z" fill="#8188a3" stroke="#8188a3" stroke-width="1.51"/><path d="M-62,1003L-189,1678L280,1295Z" fill="#8c95aa" stroke="#8c95aa" stroke-width="1.51"/><path d="M-410,1621L-189,1678L-62,1003Z" fill="#9690a6" stroke="#9690a6" stroke-width="1.51"/><path d="M-547,-11L-458,339L10,-184Z" fill="#d1ecb9" stroke="#d1ecb9" stroke-width="1.51"/><path d="M-425,808L-32,896L81,410Z" fill="#9ac9bb" stroke="#9ac9bb" stroke-width="1.51"/><path d="M-458,339L-425,808L81,410Z" fill="#a7d8bc" stroke="#a7d8bc" stroke-width="1.51"/><path d="M10,-184L-458,339L81,410Z" fill="#bae3b6" stroke="#bae3b6" stroke-width="1.51"/><path d="M-568,1079L-410,1621L-62,1003Z" fill="#9aa1b2" stroke="#9aa1b2" stroke-width="1.51"/><path d="M-150,-414L-345,-426L10,-184Z" fill="#e9f6b2" stroke="#e9f6b2" stroke-width="1.51"/><path d="M-345,-426L-547,-11L10,-184Z" fill="#e5f5b5" stroke="#e5f5b5" stroke-width="1.51"/><path d="M-425,808L-62,1003L-32,896Z" fill="#99bbb8" stroke="#99bbb8" stroke-width="1.51"/><path d="M-425,808L-568,1079L-62,1003Z" fill="#9db8bb" stroke="#9db8bb" stroke-width="1.51"/><path d="M-458,339L-568,1079L-425,808Z" fill="#a4cbc6" stroke="#a4cbc6" stroke-width="1.51"/><path d="M-547,-11L-568,1079L-458,339Z" fill="#b0dcc8" stroke="#b0dcc8" stroke-width="1.51"/></svg>